<?xml version="1.0" encoding="UTF-8"?>
<!DOCTYPE svg PUBLIC "-//W3C//DTD SVG 1.1//EN" "http://www.w3.org/Graphics/SVG/1.1/DTD/svg11.dtd">
<svg version="1.1" xmlns="http://www.w3.org/2000/svg" xmlns:xlink="http://www.w3.org/1999/xlink" x="0" y="0" width="40" height="40" viewBox="0, 0, 100, 100">
  <g id="Layer_1">
    <path d="M49.919,2.772 C22.968,2.772 1.118,24.622 1.118,51.579 C1.118,73.142 15.101,91.433 34.495,97.89 C36.936,98.336 37.826,96.829 37.826,95.535 C37.826,94.378 37.784,91.307 37.76,87.236 C24.185,90.184 21.321,80.692 21.321,80.692 C19.1,75.053 15.9,73.552 15.9,73.552 C11.469,70.526 16.236,70.586 16.236,70.586 C21.135,70.931 23.711,75.617 23.711,75.617 C28.065,83.074 35.136,80.92 37.916,79.67 C38.36,76.519 39.618,74.367 41.014,73.148 C30.177,71.916 18.783,67.728 18.783,49.026 C18.783,43.699 20.685,39.342 23.807,35.93 C23.304,34.695 21.629,29.734 24.284,23.014 C24.284,23.014 28.382,21.701 37.706,28.017 C41.598,26.932 45.775,26.393 49.925,26.375 C54.068,26.393 58.245,26.932 62.143,28.017 C71.461,21.701 75.551,23.014 75.551,23.014 C78.214,29.734 76.539,34.695 76.036,35.93 C79.164,39.342 81.054,43.699 81.054,49.026 C81.054,67.776 69.642,71.901 58.769,73.109 C60.522,74.616 62.083,77.594 62.083,82.148 C62.083,88.671 62.023,93.935 62.023,95.535 C62.023,96.841 62.901,98.36 65.379,97.884 C84.758,91.415 98.729,73.136 98.729,51.579 C98.729,24.622 76.875,2.772 49.919,2.772" fill="#EFEFEF"/>
  </g>
</svg>
