<?xml version="1.0" encoding="UTF-8"?>
<!DOCTYPE svg PUBLIC "-//W3C//DTD SVG 1.1//EN" "http://www.w3.org/Graphics/SVG/1.1/DTD/svg11.dtd">
<svg version="1.1" xmlns="http://www.w3.org/2000/svg" xmlns:xlink="http://www.w3.org/1999/xlink" x="0" y="0" width="40" height="40" viewBox="0, 0, 200, 200">
  <g id="Layer_1">
    <path d="M99.991,2.432 C44.771,2.432 0,47.203 0,102.435 C0,146.617 28.65,184.095 68.388,197.325 C73.391,198.239 75.214,195.151 75.214,192.499 C75.214,190.13 75.128,183.837 75.079,175.495 C47.264,181.535 41.395,162.087 41.395,162.087 C36.846,150.54 30.289,147.464 30.289,147.464 C21.21,141.258 30.977,141.381 30.977,141.381 C41.014,142.093 46.294,151.688 46.294,151.688 C55.213,166.968 69.701,162.554 75.398,160 C76.307,153.536 78.885,149.128 81.746,146.629 C59.541,144.106 36.195,135.524 36.195,97.205 C36.195,86.29 40.093,77.364 46.49,70.372 C45.459,67.842 42.027,57.676 47.466,43.907 C47.466,43.907 55.864,41.218 74.969,54.159 C82.943,51.943 91.501,50.831 100.003,50.795 C108.493,50.831 117.051,51.943 125.038,54.159 C144.13,41.218 152.509,43.907 152.509,43.907 C157.967,57.676 154.535,67.842 153.504,70.372 C159.913,77.364 163.786,86.29 163.786,97.205 C163.786,135.622 140.403,144.076 118.125,146.549 C121.716,149.637 124.915,155.739 124.915,165.071 C124.915,178.435 124.792,189.221 124.792,192.499 C124.792,195.176 126.591,198.288 131.668,197.312 C171.374,184.058 200,146.605 200,102.435 C200,47.203 155.223,2.432 99.991,2.432" fill="#495E67"/>
  </g>
</svg>
