<?xml version="1.0" encoding="UTF-8"?>
<!DOCTYPE svg PUBLIC "-//W3C//DTD SVG 1.1//EN" "http://www.w3.org/Graphics/SVG/1.1/DTD/svg11.dtd">
<svg version="1.1" xmlns="http://www.w3.org/2000/svg" xmlns:xlink="http://www.w3.org/1999/xlink" x="0" y="0" width="40" height="40" viewBox="0, 0, 100, 100">
  <g id="Layer_1">
    <path d="M11.044,19.771 L88.453,19.771 C90.657,19.771 92.443,21.557 92.443,23.761 L92.443,23.761 C92.443,25.965 90.657,27.751 88.453,27.751 L11.044,27.751 C8.841,27.751 7.054,25.965 7.054,23.761 L7.054,23.761 C7.054,21.557 8.841,19.771 11.044,19.771 z" fill="#105B63"/>
    <path d="M11.547,46.01 L88.956,46.01 C91.159,46.01 92.946,47.796 92.946,50 L92.946,50 C92.946,52.204 91.159,53.99 88.956,53.99 L11.547,53.99 C9.343,53.99 7.557,52.204 7.557,50 L7.557,50 C7.557,47.796 9.343,46.01 11.547,46.01 z" fill="#105B63"/>
    <path d="M11.547,72.249 L88.956,72.249 C91.159,72.249 92.946,74.035 92.946,76.239 L92.946,76.239 C92.946,78.443 91.159,80.229 88.956,80.229 L11.547,80.229 C9.343,80.229 7.557,78.443 7.557,76.239 L7.557,76.239 C7.557,74.035 9.343,72.249 11.547,72.249 z" fill="#105B63"/>
  </g>
</svg>
